<svg id="图层_1" data-name="图层 1" xmlns="http://www.w3.org/2000/svg" viewBox="0 0 812.12 841.89"><path d="M306,664.11c8.13,2.75,16.16,5.79,24.39,8.16,9,2.6,18.13,4.7,27.25,6.81,19.78,4.56,39.91,5.19,60.06,4.4,9.12-.35,18.21-1.91,27.29-3.06,5.5-.7,11-1.76,16.46-2.46,4.81-.61,5.39-1.15,5.46-5.9.37-25.93,7.62-49.79,22.31-71.14a122.75,122.75,0,0,1,38.94-36.26c5.82-3.44,11.94-6.37,18.39-9.78,4.05,17.68,4.76,34.33,1.17,51.44-3.56,16.95-10.94,31.87-20,46.65,9.52-5.85,19.3-11.31,28.49-17.62a253,253,0,0,0,42.08-36.27c4-4.27,7.57-8.88,11.45-13.23,2.38-2.66,2.19-4.85.24-7.88-8.18-12.71-13.54-26.67-17.07-41.31a116.8,116.8,0,0,1-2.14-39.38,127.34,127.34,0,0,1,23.17-61.39c.64-.91,1.38-1.75,2.51-3.18,21.27,23.28,32.54,50.34,35,81.7.89-2.24,1.77-4.49,2.67-6.73a62.12,62.12,0,0,0,2.86-7.26c3.21-12.66,6.86-25.25,9.23-38.08,2.89-15.71,3.2-31.73,2.49-47.68-.39-8.66-1.51-17.29-2.31-25.93-.2-2.1-1.1-3.18-3.49-3.52-12.34-1.77-24.63-3.68-36.59-7.56-20.85-6.78-38.24-18.72-52.74-34.85a125.29,125.29,0,0,1-24.46-40.18c-.86-2.31-.5-3.27,2-3.35,9.83-.34,19.76-1.82,29.45-.87a117,117,0,0,1,55.8,20.23c4.24,2.92,8.34,6.06,12.82,8.82-6.13-19.71-17.07-36.86-29-53.17-32.66-44.8-75.42-73-104-83.85,1.43,10.15,5.12,19.28,10.09,28a88.58,88.58,0,0,0,22,25.52c10.44,8.28,21.94,14.75,35,18a38.22,38.22,0,0,1,4.68,1.21c2,.79,5.31,1.51,5.65,2.87.86,3.46.53,7.27.26,10.91,0,.38-2.94,1-4.38.74a110.52,110.52,0,0,1-35.06-12.47C532.51,252.61,517,234.39,507,211.44a93.6,93.6,0,0,1-7.28-30.2c-.34-4.31-1-8.59-1.73-14.09,22.21,7.11,41.78,17.38,60.56,29.3,19,12,36,26.38,52.16,42.68-4.46-29.24,2.64-55.65,18.3-81.23,5.27,5.9,10.68,10.92,14.82,16.83a165.21,165.21,0,0,1,15,25.12c3.22,7,4.63,14.85,6.34,22.43a75.56,75.56,0,0,1,2.14,16.22c0,19.11-3.79,37.47-12.35,54.64-1.8,3.62-1.84,6.48.1,9.91,8.8,15.51,14,32.45,19.06,49.38,1.54,5.13,2.47,10.44,3.89,16.6,11-32.91,32.43-55.1,62.26-70.79,1.11,4.46,2.54,8.42,3,12.49,1,9.25,2.58,18.59,2.14,27.81a107.2,107.2,0,0,1-16.15,51.86,128.15,128.15,0,0,1-31.79,34.72A92,92,0,0,1,687,431.61c-2.55,1.44-3.4,3.36-3.75,6.3-1.58,13.14-3.36,26.26-5.44,39.33-2.37,14.81-7.44,28.87-12.67,42.85-1.66,4.45-3.7,8.75-5.28,13.59,23.31-16.29,49.18-24.7,77.55-26.71a117.34,117.34,0,0,1-21.75,50.8,131.12,131.12,0,0,1-24.46,25.55,116.13,116.13,0,0,1-37.52,19.83,132.47,132.47,0,0,1-41.85,5.73,8.49,8.49,0,0,0-5.12,2.22c-9.17,8.22-17.79,17.12-27.39,24.8a337.56,337.56,0,0,1-30.48,21.28c-8.07,5.11-16.78,9.24-26.1,14.29,12.88,2.45,24.88,5.32,36.13,10.85S580,695.47,590.16,704.1c-2.84,2.06-5.06,4-7.54,5.41-13,7.55-26.85,13.25-41.71,15.7a116.86,116.86,0,0,1-33.37.58,111.87,111.87,0,0,1-45.89-16.09,119.9,119.9,0,0,1-15-11c-2.42-2.07-4.64-3-7.68-2.64-6,.68-12.09,1.63-18.15,1.76-10.08.21-20.17-.12-30.26-.25a36,36,0,0,1-3.72-.34c-9.19-1.11-18.41-2-27.56-3.39a233.5,233.5,0,0,1-44.21-11.26,6.88,6.88,0,0,0-2.22.15c15.63,23.14,21.76,48.29,18.52,76.35-5-1.52-10.13-2.73-15-4.58-20.42-7.77-36.16-21.24-48-39.53-7.46-11.56-12.77-24-14.65-37.6-1.06-7.72-1.5-15.53-2.05-23.32-.16-2.18-.36-3.74-2.52-5.22a259.86,259.86,0,0,1-44.53-37.87c-7.58-8.18-14.42-17.06-21.61-25.61a25.48,25.48,0,0,0-2.33-2.07c1,29.66-8,55.25-27.11,77.8-7.45-8-13.54-16.36-17.26-26-3.35-8.7-6.37-17.71-8-26.85a100.12,100.12,0,0,1-.8-29.27c1.76-14.57,6.93-27.65,13.51-40.42a33.24,33.24,0,0,1,3.94-6.69c3.7-4.28,2-8.37.5-12.84-3.79-11.54-7.37-23.15-10.82-34.79-3.34-11.29-4.48-22.94-5.86-34.61-1.93-16.33-1.28-32.62-.65-48.91.28-7.25,2-14.45,3-21.67a30.41,30.41,0,0,0,0-3.66C113.36,393.73,92.28,405,66.86,409c0-4-.48-8.08.09-12,1.59-11,3.63-22,8.84-31.93A210.78,210.78,0,0,1,90.37,341c9.41-13.24,22.44-22.47,36.8-29.48,8.57-4.18,18-6.57,27-9.89a7,7,0,0,0,3.27-2.53c8.18-12.69,15.88-25.71,24.49-38.1,4.94-7.11,11.31-13.22,17-19.79a66.83,66.83,0,0,0,5-6,7.32,7.32,0,0,0,.9-3.8c.15-8.19-.46-16.45.48-24.54s3.24-15.91,5.24-23.79c3-12,9.33-22.3,16.57-32.12,8.17-11.06,18.51-19.78,30.17-26.81,6.31-3.81,13.27-6.52,19.88-9.85,2-1,3.11-.58,3.44,1.57a104.91,104.91,0,0,1,.63,29.72,127.43,127.43,0,0,1-11.49,39.2c-.08.15.14.45.32.95,6.18-3,12.17-6.46,18.52-9,12.12-4.78,24.38-9.22,36.71-13.42,4.69-1.59,7.53-3.9,9.11-8.87,3-9.52,8.56-17.85,14.59-25.78,11.6-15.24,26.42-26.49,43.63-34.66A94.82,94.82,0,0,1,422,85.05c8.6-1,17.28-1.51,25.93-2.18a35.61,35.61,0,0,1,4.33.23,109,109,0,0,1-16.33,38.12c-7.75,11.73-17.76,21.23-30,29.89a23.41,23.41,0,0,0,3.28.69c6,.12,12.05-.27,18,.36,9.69,1,19.35,2.48,28.94,4.22,8.73,1.59,17.35,3.78,26,5.74,3.85.88,5.93,3.23,6.13,7.29.31,6.13-2.55,8.45-8.49,7.13-12-2.67-24.06-5.43-36.18-7.62a215.75,215.75,0,0,0-22.17-2.35c-8.8-.67-17.62-1-26.43-1.5-.13.4-.27.8-.4,1.2a17.52,17.52,0,0,0,2.34,1.59,99.13,99.13,0,0,1,29.35,21.28c8.71,9.09,14.51,20,19.76,31.23,1.31,2.8-1,3.46-2.65,3.73-6.23,1-12.5,2.31-18.77,2.47-7.94.19-16.06.24-23.83-1.18a91.92,91.92,0,0,1-39.3-17.47,99.81,99.81,0,0,1-25.15-27.69c-3-4.87-3.31-5.09-8.54-3.13-11.58,4.35-23.45,8.14-34.56,13.48-12.56,6-24.43,13.51-36.59,20.39a10.32,10.32,0,0,0-1.74,1.82c33.58-5.36,62.36,4.48,88.85,25.32-18.64,16.68-39.91,26.06-64.41,28.3s-47.15-4-68.32-17c-5.34,6.16-11.07,11.92-15.79,18.41-7.29,10-13.88,20.55-20.78,30.84-1.47,2.19-1.3,3.71.79,5.75C188,316.9,198.33,331,204.09,348.1c2.93,8.67,5.43,17.5,5.43,26.79,0,7.3.53,14.65-.15,21.88a94.89,94.89,0,0,1-8.94,31.93c-1.54,3.24-3.5,1.84-5,.63-5-3.92-10.17-7.7-14.52-12.26-8.94-9.35-16.93-19.55-21.7-31.72-3.35-8.56-5.86-17.46-8.71-26.11a49,49,0,0,0-2,6.22c-1.32,6.77-2.36,13.59-3.63,20.37a204,204,0,0,0-3.23,46.39c.41,9.63,1.86,19.24,3.15,28.81.91,6.71,2.37,13.35,3.52,20,.43,2.54,1.18,4.14,4.34,4.39,16.88,1.29,33.14,4.92,48.19,13.11a99.78,99.78,0,0,1,26.27,19.91c11.67,12.72,20.61,27.21,25.18,44.11.55,2,.17,3.14-1.93,3.48a38.28,38.28,0,0,1-5.52.73c-6,.1-12,.31-18,0-13.14-.73-25.45-4.72-37.22-10.4-4.3-2.09-8.41-4.58-13-7.11a20.42,20.42,0,0,0,1.64,3.79c7.28,10.46,14.19,21.23,22.11,31.18a326.58,326.58,0,0,0,23.37,25.58c9.8,9.93,20.9,18.34,32.47,26.13,2.32,1.56,3.6,1,5.48-.55,6.51-5.56,12.87-11.35,19.87-16.25a93.59,93.59,0,0,1,31.33-13.9c10-2.51,20.18-4.34,30.47-4.14,15.49.29,30.32,4.09,44.56,10.17.53.22.91.79,1.74,1.55-20.31,29.47-47.68,46.91-83.86,50ZM617.7,457.43c-19.59,34.12-17.62,81.52,4.35,112.42a92.18,92.18,0,0,0,13.37-36.92A108.31,108.31,0,0,0,628.7,477C626,470.24,623.26,463.24,617.7,457.43Zm5.53,136.2c33.34,2.06,79.45-25.46,95.06-70.33-6.47,1.79-12.6,3.05-18.39,5.19a134.85,134.85,0,0,0-55.58,38.26C636.86,575.27,629.3,583.71,623.23,593.63Zm-87.88-16.94c-13.63,7.6-24.38,17.89-33.23,30.29-13.65,19.12-20.43,40.53-21.1,63.95C514.06,658.89,540.92,613.12,535.35,576.69ZM662.47,370.2c-6-15.05-16-26.32-28.31-35.65-18.83-14.31-40.08-22-63.92-22.5C575.2,337.89,629.09,372.18,662.47,370.2Zm22.46,45.47c27.42-10.45,54.57-67.23,45.35-94.31C706.56,330.16,680.1,385,684.93,415.67ZM565.14,702.87l.24-1.39c-7.1-3.49-14-7.32-21.33-10.37A86.5,86.5,0,0,0,515,684.68a118.65,118.65,0,0,0-31.85,2.4c-6.92,1.54-13.76,3.44-21.7,5.44,13,10.74,27.79,16,43.2,19C525.66,715.7,545.91,712.05,565.14,702.87ZM349.53,156c26.59-3,49.68-13.26,67.56-33.42,6.33-7.14,12-15,15-25C393.67,102.72,366.17,121.66,349.53,156ZM643.9,281.17c10.09-21.49,11.57-43.76,5.34-66.48-3.19-11.62-8.29-22.47-17.52-32C618.43,218.37,622.73,250.74,643.9,281.17Zm-371.78,363v1.24c4.46,1,8.9,2.77,13.39,3,14.25.58,28.34.57,42.3-4.12,14.47-4.86,26.54-12.91,37.46-23.12.44-.42.07-2.75-.48-3a14.7,14.7,0,0,0-5.33-1.3c-8.82-.48-17.65-1-26.48-1.09a41.7,41.7,0,0,0-11.34,1.75c-6.16,1.74-12.22,3.84-18.24,6C291.33,627.86,281.47,635.64,272.12,644.12ZM233.3,552.71c-13-32.17-50.63-53.42-78.8-52.38C165.69,533.17,206.71,555.11,233.3,552.71Zm-9.15-313.46c14.84,17.69,73.88,17.12,94.77-.7C293.64,221.23,251.26,221,224.15,239.25Zm94.31,500.64a92.68,92.68,0,0,0-21.21-54.75c-8.34-10.18-18.77-18-30.53-24.66C264.53,689.51,285,726.84,318.46,739.89ZM219,219.56c33.08-21.08,51-57.83,47.68-84.23C239.89,146.92,214.53,191.51,219,219.56Zm-52.15,98c-10.2,42.89,8.84,77.67,25.72,90.24C204.31,385.94,187.25,325.55,166.88,317.53ZM153.33,636.88c20.36-31.21,14.59-74.35,1.38-94.33C135.54,572.3,137.34,613.11,153.33,636.88ZM147,318.72c-26,7.13-57.91,32.59-64.34,71.47a72.06,72.06,0,0,0,21.56-10.41C126.11,365,139.44,344.12,147,318.72ZM424.79,212.67c-.75-19.06-56.41-47.47-74.6-38.27C364.56,200.33,396.93,215,424.79,212.67Z"/></svg>